<mxfile host="app.diagrams.net" modified="2020-12-03T17:32:48.471Z" agent="5.0 (Macintosh; Intel Mac OS X 10_15_4) AppleWebKit/537.36 (KHTML, like Gecko) Chrome/87.0.4280.67 Safari/537.36" etag="W-LhW_Ms6vBHckaJLunO" version="13.10.6" type="github">
  <diagram id="Y3yRvs9Tr7HNMY1S09eI" name="Page-1">
    <mxGraphModel dx="3005" dy="923" grid="1" gridSize="10" guides="1" tooltips="1" connect="1" arrows="1" fold="1" page="1" pageScale="1" pageWidth="827" pageHeight="1169" background="none" math="0" shadow="1">
      <root>
        <mxCell id="0" />
        <mxCell id="1" parent="0" />
        <mxCell id="cCi0xss9A6dfBLPzsaxl-58" value="commit and push&lt;br&gt;" style="edgeStyle=orthogonalEdgeStyle;rounded=0;orthogonalLoop=1;jettySize=auto;html=1;" parent="1" source="cCi0xss9A6dfBLPzsaxl-59" target="cCi0xss9A6dfBLPzsaxl-61" edge="1">
          <mxGeometry relative="1" as="geometry">
            <mxPoint as="offset" />
          </mxGeometry>
        </mxCell>
        <mxCell id="cCi0xss9A6dfBLPzsaxl-59" value="" style="verticalLabelPosition=bottom;html=1;verticalAlign=top;align=center;strokeColor=none;fillColor=#00BEF2;shape=mxgraph.azure.git_repository;" parent="1" vertex="1">
          <mxGeometry x="-1344" y="30" width="50" height="50" as="geometry" />
        </mxCell>
        <mxCell id="cCi0xss9A6dfBLPzsaxl-60" value="trigger event from webhook&lt;br&gt;" style="edgeStyle=orthogonalEdgeStyle;rounded=0;orthogonalLoop=1;jettySize=auto;html=1;" parent="1" source="cCi0xss9A6dfBLPzsaxl-61" target="cCi0xss9A6dfBLPzsaxl-63" edge="1">
          <mxGeometry relative="1" as="geometry" />
        </mxCell>
        <mxCell id="cCi0xss9A6dfBLPzsaxl-61" value="" style="shape=image;html=1;verticalAlign=top;verticalLabelPosition=bottom;labelBackgroundColor=#ffffff;imageAspect=0;aspect=fixed;image=https://cdn2.iconfinder.com/data/icons/social-icons-circular-color/512/github-128.png" parent="1" vertex="1">
          <mxGeometry x="-1359" y="130" width="80" height="80" as="geometry" />
        </mxCell>
        <mxCell id="cCi0xss9A6dfBLPzsaxl-62" value="read jenkins file" style="edgeStyle=orthogonalEdgeStyle;rounded=0;orthogonalLoop=1;jettySize=auto;html=1;" parent="1" source="cCi0xss9A6dfBLPzsaxl-63" target="cCi0xss9A6dfBLPzsaxl-68" edge="1">
          <mxGeometry relative="1" as="geometry" />
        </mxCell>
        <mxCell id="cCi0xss9A6dfBLPzsaxl-63" value="" style="shape=image;html=1;verticalAlign=top;verticalLabelPosition=bottom;labelBackgroundColor=#ffffff;imageAspect=0;aspect=fixed;image=https://cdn4.iconfinder.com/data/icons/logos-brands-5/24/jenkins-128.png" parent="1" vertex="1">
          <mxGeometry x="-1359" y="270" width="79" height="79" as="geometry" />
        </mxCell>
        <mxCell id="cCi0xss9A6dfBLPzsaxl-64" value="" style="aspect=fixed;html=1;points=[];align=center;image;fontSize=12;image=img/lib/mscae/Docker.svg;" parent="1" vertex="1">
          <mxGeometry x="-710" y="276.75" width="79.88" height="65.5" as="geometry" />
        </mxCell>
        <mxCell id="cCi0xss9A6dfBLPzsaxl-65" value="" style="edgeStyle=orthogonalEdgeStyle;rounded=0;orthogonalLoop=1;jettySize=auto;html=1;" parent="1" source="cCi0xss9A6dfBLPzsaxl-68" target="cCi0xss9A6dfBLPzsaxl-72" edge="1">
          <mxGeometry relative="1" as="geometry" />
        </mxCell>
        <mxCell id="cCi0xss9A6dfBLPzsaxl-66" style="edgeStyle=orthogonalEdgeStyle;rounded=0;orthogonalLoop=1;jettySize=auto;html=1;entryX=0;entryY=0.5;entryDx=0;entryDy=0;" parent="1" source="cCi0xss9A6dfBLPzsaxl-68" target="cCi0xss9A6dfBLPzsaxl-70" edge="1">
          <mxGeometry relative="1" as="geometry">
            <Array as="points">
              <mxPoint x="-969" y="310" />
              <mxPoint x="-969" y="227" />
            </Array>
          </mxGeometry>
        </mxCell>
        <mxCell id="cCi0xss9A6dfBLPzsaxl-67" style="edgeStyle=orthogonalEdgeStyle;rounded=0;orthogonalLoop=1;jettySize=auto;html=1;entryX=0;entryY=0.5;entryDx=0;entryDy=0;" parent="1" source="cCi0xss9A6dfBLPzsaxl-68" edge="1">
          <mxGeometry relative="1" as="geometry">
            <Array as="points">
              <mxPoint x="-969" y="310" />
              <mxPoint x="-969" y="392" />
            </Array>
            <mxPoint x="-929.0000000000002" y="392" as="targetPoint" />
          </mxGeometry>
        </mxCell>
        <mxCell id="cCi0xss9A6dfBLPzsaxl-68" value="prepare branch and tag information" style="rounded=1;whiteSpace=wrap;html=1;" parent="1" vertex="1">
          <mxGeometry x="-1139" y="279.5" width="120" height="60" as="geometry" />
        </mxCell>
        <mxCell id="cCi0xss9A6dfBLPzsaxl-69" style="edgeStyle=orthogonalEdgeStyle;rounded=0;orthogonalLoop=1;jettySize=auto;html=1;entryX=0.526;entryY=0.008;entryDx=0;entryDy=0;entryPerimeter=0;" parent="1" source="cCi0xss9A6dfBLPzsaxl-70" target="cCi0xss9A6dfBLPzsaxl-64" edge="1">
          <mxGeometry relative="1" as="geometry" />
        </mxCell>
        <mxCell id="cCi0xss9A6dfBLPzsaxl-90" value="image create" style="edgeLabel;html=1;align=center;verticalAlign=middle;resizable=0;points=[];" parent="cCi0xss9A6dfBLPzsaxl-69" vertex="1" connectable="0">
          <mxGeometry x="-0.4935" y="2" relative="1" as="geometry">
            <mxPoint x="20.76" y="1.94" as="offset" />
          </mxGeometry>
        </mxCell>
        <mxCell id="cCi0xss9A6dfBLPzsaxl-70" value="prepare branch and tag information" style="rounded=1;whiteSpace=wrap;html=1;" parent="1" vertex="1">
          <mxGeometry x="-929" y="197" width="120" height="60" as="geometry" />
        </mxCell>
        <mxCell id="cCi0xss9A6dfBLPzsaxl-78" style="edgeStyle=orthogonalEdgeStyle;rounded=0;orthogonalLoop=1;jettySize=auto;html=1;" parent="1" source="cCi0xss9A6dfBLPzsaxl-72" target="cCi0xss9A6dfBLPzsaxl-64" edge="1">
          <mxGeometry relative="1" as="geometry" />
        </mxCell>
        <mxCell id="cCi0xss9A6dfBLPzsaxl-92" value="image create" style="edgeLabel;html=1;align=center;verticalAlign=middle;resizable=0;points=[];" parent="cCi0xss9A6dfBLPzsaxl-78" vertex="1" connectable="0">
          <mxGeometry x="-0.0802" y="-2" relative="1" as="geometry">
            <mxPoint as="offset" />
          </mxGeometry>
        </mxCell>
        <mxCell id="cCi0xss9A6dfBLPzsaxl-72" value="prepare branch and tag information" style="rounded=1;whiteSpace=wrap;html=1;" parent="1" vertex="1">
          <mxGeometry x="-929" y="279.5" width="120" height="60" as="geometry" />
        </mxCell>
        <mxCell id="cCi0xss9A6dfBLPzsaxl-91" value="image create" style="edgeStyle=orthogonalEdgeStyle;rounded=0;orthogonalLoop=1;jettySize=auto;html=1;entryX=0.5;entryY=1;entryDx=0;entryDy=0;" parent="1" source="cCi0xss9A6dfBLPzsaxl-74" target="cCi0xss9A6dfBLPzsaxl-75" edge="1">
          <mxGeometry relative="1" as="geometry" />
        </mxCell>
        <mxCell id="cCi0xss9A6dfBLPzsaxl-74" value="prepare branch and tag information" style="rounded=1;whiteSpace=wrap;html=1;" parent="1" vertex="1">
          <mxGeometry x="-929" y="365" width="120" height="60" as="geometry" />
        </mxCell>
        <mxCell id="cCi0xss9A6dfBLPzsaxl-75" value="Docker hub&lt;br&gt;" style="text;html=1;strokeColor=none;fillColor=none;align=center;verticalAlign=middle;whiteSpace=wrap;rounded=0;" parent="1" vertex="1">
          <mxGeometry x="-719.9999999999999" y="345" width="80.06" height="20" as="geometry" />
        </mxCell>
        <mxCell id="cCi0xss9A6dfBLPzsaxl-79" value="Jenkins&lt;br&gt;" style="text;html=1;strokeColor=none;fillColor=none;align=center;verticalAlign=middle;whiteSpace=wrap;rounded=0;" parent="1" vertex="1">
          <mxGeometry x="-1344" y="355" width="40" height="20" as="geometry" />
        </mxCell>
        <mxCell id="cCi0xss9A6dfBLPzsaxl-80" value="&lt;font style=&quot;font-size: 24px&quot;&gt;&lt;b&gt;&lt;u&gt;Build&lt;/u&gt;&lt;/b&gt;&lt;/font&gt;" style="text;html=1;strokeColor=none;fillColor=none;align=center;verticalAlign=middle;whiteSpace=wrap;rounded=0;" parent="1" vertex="1">
          <mxGeometry x="-1040" y="10" width="40" height="20" as="geometry" />
        </mxCell>
        <mxCell id="cCi0xss9A6dfBLPzsaxl-119" style="edgeStyle=orthogonalEdgeStyle;rounded=0;orthogonalLoop=1;jettySize=auto;html=1;entryX=0;entryY=0.5;entryDx=0;entryDy=0;" parent="1" source="cCi0xss9A6dfBLPzsaxl-81" target="cCi0xss9A6dfBLPzsaxl-89" edge="1">
          <mxGeometry relative="1" as="geometry" />
        </mxCell>
        <mxCell id="cCi0xss9A6dfBLPzsaxl-120" value="docker run to k8s" style="edgeLabel;html=1;align=center;verticalAlign=middle;resizable=0;points=[];" parent="cCi0xss9A6dfBLPzsaxl-119" vertex="1" connectable="0">
          <mxGeometry x="-0.1139" y="2" relative="1" as="geometry">
            <mxPoint as="offset" />
          </mxGeometry>
        </mxCell>
        <mxCell id="cCi0xss9A6dfBLPzsaxl-81" value="" style="shape=image;html=1;verticalAlign=top;verticalLabelPosition=bottom;labelBackgroundColor=#ffffff;imageAspect=0;aspect=fixed;image=https://cdn4.iconfinder.com/data/icons/logos-brands-5/24/jenkins-128.png" parent="1" vertex="1">
          <mxGeometry x="-1363.5" y="550" width="79" height="79" as="geometry" />
        </mxCell>
        <mxCell id="cCi0xss9A6dfBLPzsaxl-117" value="get image" style="edgeStyle=orthogonalEdgeStyle;rounded=0;orthogonalLoop=1;jettySize=auto;html=1;entryX=0.001;entryY=0.503;entryDx=0;entryDy=0;entryPerimeter=0;" parent="1" source="cCi0xss9A6dfBLPzsaxl-82" target="cCi0xss9A6dfBLPzsaxl-87" edge="1">
          <mxGeometry x="0.4349" relative="1" as="geometry">
            <Array as="points">
              <mxPoint x="-1319" y="713" />
            </Array>
            <mxPoint as="offset" />
          </mxGeometry>
        </mxCell>
        <mxCell id="cCi0xss9A6dfBLPzsaxl-82" value="Jenkins&lt;br&gt;" style="text;html=1;strokeColor=none;fillColor=none;align=center;verticalAlign=middle;whiteSpace=wrap;rounded=0;" parent="1" vertex="1">
          <mxGeometry x="-1339.5" y="635.25" width="40" height="20" as="geometry" />
        </mxCell>
        <mxCell id="cCi0xss9A6dfBLPzsaxl-83" value="&lt;font style=&quot;font-size: 24px&quot;&gt;&lt;b&gt;&lt;u&gt;Deploy&lt;/u&gt;&lt;/b&gt;&lt;/font&gt;" style="text;html=1;strokeColor=none;fillColor=none;align=center;verticalAlign=middle;whiteSpace=wrap;rounded=0;" parent="1" vertex="1">
          <mxGeometry x="-1040" y="472" width="40" height="20" as="geometry" />
        </mxCell>
        <mxCell id="cCi0xss9A6dfBLPzsaxl-86" value="" style="endArrow=none;dashed=1;html=1;" parent="1" edge="1">
          <mxGeometry width="50" height="50" relative="1" as="geometry">
            <mxPoint x="-1400" y="440" as="sourcePoint" />
            <mxPoint y="440" as="targetPoint" />
          </mxGeometry>
        </mxCell>
        <mxCell id="cCi0xss9A6dfBLPzsaxl-87" value="" style="aspect=fixed;html=1;points=[];align=center;image;fontSize=12;image=img/lib/mscae/Docker.svg;" parent="1" vertex="1">
          <mxGeometry x="-1200" y="680" width="79.88" height="65.5" as="geometry" />
        </mxCell>
        <mxCell id="cCi0xss9A6dfBLPzsaxl-88" value="Docker hub&lt;br&gt;" style="text;html=1;strokeColor=none;fillColor=none;align=center;verticalAlign=middle;whiteSpace=wrap;rounded=0;" parent="1" vertex="1">
          <mxGeometry x="-1200.18" y="760" width="80.06" height="20" as="geometry" />
        </mxCell>
        <mxCell id="cCi0xss9A6dfBLPzsaxl-89" value="" style="rounded=1;whiteSpace=wrap;html=1;" parent="1" vertex="1">
          <mxGeometry x="-929" y="484.5" width="250" height="210" as="geometry" />
        </mxCell>
        <mxCell id="cCi0xss9A6dfBLPzsaxl-95" value="" style="aspect=fixed;html=1;points=[];align=center;image;fontSize=12;image=img/lib/mscae/Kubernetes.svg;" parent="1" vertex="1">
          <mxGeometry x="-829" y="496.25" width="50" height="48" as="geometry" />
        </mxCell>
        <mxCell id="cCi0xss9A6dfBLPzsaxl-99" value="" style="shape=hexagon;perimeter=hexagonPerimeter2;whiteSpace=wrap;html=1;fixedSize=1;rotation=90;" parent="1" vertex="1">
          <mxGeometry x="-929" y="546.75" width="120" height="110" as="geometry" />
        </mxCell>
        <mxCell id="cCi0xss9A6dfBLPzsaxl-101" value="" style="html=1;dashed=0;whitespace=wrap;fillColor=#2875E2;strokeColor=#ffffff;points=[[0.005,0.63,0],[0.1,0.2,0],[0.9,0.2,0],[0.5,0,0],[0.995,0.63,0],[0.72,0.99,0],[0.5,1,0],[0.28,0.99,0]];shape=mxgraph.kubernetes.icon;prIcon=node" parent="1" vertex="1">
          <mxGeometry x="-919" y="557.75" width="50" height="48" as="geometry" />
        </mxCell>
        <mxCell id="cCi0xss9A6dfBLPzsaxl-102" value="" style="html=1;dashed=0;whitespace=wrap;fillColor=#2875E2;strokeColor=#ffffff;points=[[0.005,0.63,0],[0.1,0.2,0],[0.9,0.2,0],[0.5,0,0],[0.995,0.63,0],[0.72,0.99,0],[0.5,1,0],[0.28,0.99,0]];shape=mxgraph.kubernetes.icon;prIcon=node" parent="1" vertex="1">
          <mxGeometry x="-869" y="557.75" width="50" height="48" as="geometry" />
        </mxCell>
        <mxCell id="cCi0xss9A6dfBLPzsaxl-103" value="" style="html=1;dashed=0;whitespace=wrap;fillColor=#2875E2;strokeColor=#ffffff;points=[[0.005,0.63,0],[0.1,0.2,0],[0.9,0.2,0],[0.5,0,0],[0.995,0.63,0],[0.72,0.99,0],[0.5,1,0],[0.28,0.99,0]];shape=mxgraph.kubernetes.icon;prIcon=node" parent="1" vertex="1">
          <mxGeometry x="-919" y="601.75" width="50" height="48" as="geometry" />
        </mxCell>
        <mxCell id="cCi0xss9A6dfBLPzsaxl-105" value="" style="html=1;dashed=0;whitespace=wrap;fillColor=#2875E2;strokeColor=#ffffff;points=[[0.005,0.63,0],[0.1,0.2,0],[0.9,0.2,0],[0.5,0,0],[0.995,0.63,0],[0.72,0.99,0],[0.5,1,0],[0.28,0.99,0]];shape=mxgraph.kubernetes.icon;prIcon=node" parent="1" vertex="1">
          <mxGeometry x="-869" y="601.75" width="50" height="48" as="geometry" />
        </mxCell>
        <mxCell id="cCi0xss9A6dfBLPzsaxl-106" value="Pods" style="text;html=1;strokeColor=none;fillColor=none;align=center;verticalAlign=middle;whiteSpace=wrap;rounded=0;" parent="1" vertex="1">
          <mxGeometry x="-889" y="514.5" width="40" height="20" as="geometry" />
        </mxCell>
        <mxCell id="cCi0xss9A6dfBLPzsaxl-107" value="" style="shape=hexagon;perimeter=hexagonPerimeter2;whiteSpace=wrap;html=1;fixedSize=1;rotation=90;" parent="1" vertex="1">
          <mxGeometry x="-798" y="546.75" width="120" height="110" as="geometry" />
        </mxCell>
        <mxCell id="cCi0xss9A6dfBLPzsaxl-108" value="" style="html=1;dashed=0;whitespace=wrap;fillColor=#2875E2;strokeColor=#ffffff;points=[[0.005,0.63,0],[0.1,0.2,0],[0.9,0.2,0],[0.5,0,0],[0.995,0.63,0],[0.72,0.99,0],[0.5,1,0],[0.28,0.99,0]];shape=mxgraph.kubernetes.icon;prIcon=node" parent="1" vertex="1">
          <mxGeometry x="-788" y="557.75" width="50" height="48" as="geometry" />
        </mxCell>
        <mxCell id="cCi0xss9A6dfBLPzsaxl-109" value="" style="html=1;dashed=0;whitespace=wrap;fillColor=#2875E2;strokeColor=#ffffff;points=[[0.005,0.63,0],[0.1,0.2,0],[0.9,0.2,0],[0.5,0,0],[0.995,0.63,0],[0.72,0.99,0],[0.5,1,0],[0.28,0.99,0]];shape=mxgraph.kubernetes.icon;prIcon=node" parent="1" vertex="1">
          <mxGeometry x="-738" y="557.75" width="50" height="48" as="geometry" />
        </mxCell>
        <mxCell id="cCi0xss9A6dfBLPzsaxl-110" value="" style="html=1;dashed=0;whitespace=wrap;fillColor=#2875E2;strokeColor=#ffffff;points=[[0.005,0.63,0],[0.1,0.2,0],[0.9,0.2,0],[0.5,0,0],[0.995,0.63,0],[0.72,0.99,0],[0.5,1,0],[0.28,0.99,0]];shape=mxgraph.kubernetes.icon;prIcon=node" parent="1" vertex="1">
          <mxGeometry x="-788" y="601.75" width="50" height="48" as="geometry" />
        </mxCell>
        <mxCell id="cCi0xss9A6dfBLPzsaxl-111" value="" style="html=1;dashed=0;whitespace=wrap;fillColor=#2875E2;strokeColor=#ffffff;points=[[0.005,0.63,0],[0.1,0.2,0],[0.9,0.2,0],[0.5,0,0],[0.995,0.63,0],[0.72,0.99,0],[0.5,1,0],[0.28,0.99,0]];shape=mxgraph.kubernetes.icon;prIcon=node" parent="1" vertex="1">
          <mxGeometry x="-738" y="601.75" width="50" height="48" as="geometry" />
        </mxCell>
        <mxCell id="cCi0xss9A6dfBLPzsaxl-112" value="Pods" style="text;html=1;strokeColor=none;fillColor=none;align=center;verticalAlign=middle;whiteSpace=wrap;rounded=0;" parent="1" vertex="1">
          <mxGeometry x="-758" y="514.5" width="40" height="20" as="geometry" />
        </mxCell>
        <mxCell id="cCi0xss9A6dfBLPzsaxl-113" value="Node" style="text;html=1;strokeColor=none;fillColor=none;align=center;verticalAlign=middle;whiteSpace=wrap;rounded=0;" parent="1" vertex="1">
          <mxGeometry x="-889" y="664.5" width="40" height="20" as="geometry" />
        </mxCell>
        <mxCell id="cCi0xss9A6dfBLPzsaxl-114" value="Node" style="text;html=1;strokeColor=none;fillColor=none;align=center;verticalAlign=middle;whiteSpace=wrap;rounded=0;" parent="1" vertex="1">
          <mxGeometry x="-758" y="664.5" width="40" height="20" as="geometry" />
        </mxCell>
        <mxCell id="QXjOJzLRqIxJTl6rue76-1" value="&lt;font style=&quot;font-size: 18px&quot;&gt;1&lt;/font&gt;" style="text;html=1;strokeColor=none;fillColor=none;align=center;verticalAlign=middle;whiteSpace=wrap;rounded=0;" vertex="1" parent="1">
          <mxGeometry x="-1384" y="675" width="40" height="20" as="geometry" />
        </mxCell>
        <mxCell id="QXjOJzLRqIxJTl6rue76-2" value="&lt;font style=&quot;font-size: 18px&quot;&gt;2&lt;/font&gt;" style="text;html=1;strokeColor=none;fillColor=none;align=center;verticalAlign=middle;whiteSpace=wrap;rounded=0;" vertex="1" parent="1">
          <mxGeometry x="-1150" y="544.25" width="40" height="20" as="geometry" />
        </mxCell>
      </root>
    </mxGraphModel>
  </diagram>
</mxfile>
